<svg width="250" height="85" viewBox="0 0 250 85" fill="none" xmlns="http://www.w3.org/2000/svg">
<path d="M108.661 31.0173H132.689L132.46 24.9509L122.729 24.321C122.523 24.2908 122.347 24.1457 122.271 23.9392L121.45 20.7859C121.381 20.5911 121.412 20.366 121.526 20.1941C121.649 20.0227 121.847 19.9192 122.061 19.9192H131.315C130.628 13.5095 126.539 8.76049 120.103 7.79076C110.952 6.41625 103.878 12.9675 105 20.8318C105.458 24.0315 107.061 29.0745 108.661 31.0173ZM126.772 13.3498L124.187 13.1819C124.187 13.1819 123 11.6511 121.977 10.4597C123 10.4597 125.581 11.4827 126.772 13.3498Z" fill="black"/>
<path d="M31.9419 33.3691C17.8813 33.3691 6.48193 44.7685 6.48193 58.8325C6.48193 72.897 17.8813 84.2959 31.9419 84.2959C46.0063 84.2959 57.4053 72.8965 57.4053 58.8325C57.4053 44.769 46.0063 33.3691 31.9419 33.3691ZM31.9419 72.2593C24.5317 72.2593 18.519 66.2544 18.519 58.8325C18.519 51.415 24.5317 45.4097 31.9419 45.4097C39.3638 45.4097 45.3687 51.415 45.3687 58.8325C45.3687 66.2544 39.3638 72.2593 31.9419 72.2593Z" fill="black"/>
<path d="M31.9419 54.6641C29.6436 54.6641 27.7808 56.5347 27.7808 58.833C27.7808 61.1353 29.6436 63.0019 31.9419 63.0019C34.2441 63.0019 36.1147 61.1353 36.1147 58.833C36.1147 56.5347 34.2441 54.6641 31.9419 54.6641Z" fill="black"/>
<path d="M192.255 29.686C173.273 26.8457 153.865 25.0703 138.072 23.9634C136.953 28.9185 133.311 33.3696 128.704 33.3696C123.149 33.3696 103.702 33.3696 103.702 33.3696V22.2607V0.5C73.4434 3.79883 54.2451 19.6875 43.0747 31.8809C53.6499 36.2637 61.1128 46.6934 61.1128 58.833C61.1128 61.5591 60.727 64.1929 60.0249 66.7051H164.979C164.276 64.1929 163.891 61.5591 163.891 58.833C163.89 43.021 176.542 30.1133 192.255 29.686Z" fill="black"/>
<path d="M31.9419 29.6675C32.8696 29.6675 33.7817 29.7173 34.6831 29.7974L39.814 22.7192V6.52148H0V47.2632L4.26807 49.6567C8.12793 38.0586 19.0728 29.6675 31.9419 29.6675Z" fill="black"/>
<path d="M229.629 57.4434V52.8164L238.429 48.1895C238.429 48.1895 240.055 42.7988 240.055 39.0957C229.694 35.6753 215.851 33.6748 203.074 31.4375C214.237 35.5376 222.223 46.269 222.223 58.8325C222.223 61.5586 221.837 64.1924 221.131 66.7046H250V57.4434H229.629Z" fill="black"/>
<path d="M193.057 33.3691C178.996 33.3691 167.593 44.7685 167.593 58.8325C167.593 72.897 178.996 84.2959 193.057 84.2959C207.121 84.2959 218.52 72.8965 218.52 58.8325C218.52 44.769 207.121 33.3691 193.057 33.3691ZM193.057 72.2593C185.639 72.2593 179.63 66.2544 179.63 58.8325C179.63 51.415 185.639 45.4097 193.057 45.4097C200.471 45.4097 206.483 51.415 206.483 58.8325C206.483 66.2544 200.471 72.2593 193.057 72.2593Z" fill="black"/>
<path d="M193.057 54.6641C190.754 54.6641 188.888 56.5347 188.888 58.833C188.888 61.1353 190.754 63.0019 193.057 63.0019C195.359 63.0019 197.222 61.1353 197.222 58.833C197.222 56.5347 195.359 54.6641 193.057 54.6641Z" fill="black"/>
</svg>
