<svg width="860" height="97" viewBox="0 0 860 97" fill="none" xmlns="http://www.w3.org/2000/svg">
<g filter="url(#filter0_bd_649_110)">
<path d="M62.5615 65.73C62.0015 66.1967 60.9515 66.8267 59.4115 67.62C57.9182 68.4133 56.0748 69.1133 53.8815 69.72C51.6882 70.3267 49.2615 70.6067 46.6015 70.56C42.5415 70.4667 38.9015 69.7433 35.6815 68.39C32.5082 66.99 29.8015 65.1 27.5615 62.72C25.3682 60.34 23.6882 57.61 22.5215 54.53C21.3548 51.45 20.7715 48.16 20.7715 44.66C20.7715 40.74 21.3548 37.1467 22.5215 33.88C23.7348 30.6133 25.4382 27.79 27.6315 25.41C29.8715 23.03 32.5315 21.1867 35.6115 19.88C38.6915 18.5733 42.0982 17.92 45.8315 17.92C49.2848 17.92 52.3415 18.3867 55.0015 19.32C57.6615 20.2533 59.8315 21.2567 61.5115 22.33L57.5215 31.92C56.3548 31.0333 54.7915 30.1233 52.8315 29.19C50.9182 28.21 48.7015 27.72 46.1815 27.72C44.2215 27.72 42.3315 28.14 40.5115 28.98C38.7382 29.7733 37.1515 30.9167 35.7515 32.41C34.3982 33.9033 33.3248 35.6533 32.5315 37.66C31.7382 39.62 31.3415 41.7667 31.3415 44.1C31.3415 46.5733 31.6915 48.8367 32.3915 50.89C33.1382 52.9433 34.1882 54.7167 35.5415 56.21C36.8948 57.6567 38.5048 58.7767 40.3715 59.57C42.2848 60.3633 44.4315 60.76 46.8115 60.76C49.5648 60.76 51.9215 60.3167 53.8815 59.43C55.8415 58.5433 57.3348 57.61 58.3615 56.63L62.5615 65.73ZM72.7301 18.48H82.8801V70H72.7301V18.48ZM111.787 18.48C115.007 18.48 117.877 18.9 120.397 19.74C122.917 20.5333 125.017 21.7 126.697 23.24C128.424 24.7333 129.731 26.5533 130.617 28.7C131.504 30.8 131.947 33.18 131.947 35.84C131.947 37.94 131.621 40.04 130.967 42.14C130.361 44.24 129.334 46.1533 127.887 47.88C126.487 49.6067 124.621 51.0067 122.287 52.08C119.954 53.1067 117.061 53.62 113.607 53.62H106.327V70H96.1773V18.48H111.787ZM113.537 43.82C115.077 43.82 116.361 43.5633 117.387 43.05C118.414 42.5367 119.207 41.8833 119.767 41.09C120.374 40.2967 120.794 39.48 121.027 38.64C121.307 37.7533 121.447 36.9367 121.447 36.19C121.447 35.63 121.354 34.93 121.167 34.09C121.027 33.2033 120.701 32.3167 120.187 31.43C119.674 30.5433 118.881 29.7967 117.807 29.19C116.781 28.5833 115.381 28.28 113.607 28.28H106.327V43.82H113.537ZM123.057 50.12L135.797 70H123.967L110.947 50.4L123.057 50.12ZM181.028 65.73C180.468 66.1967 179.418 66.8267 177.878 67.62C176.385 68.4133 174.542 69.1133 172.348 69.72C170.155 70.3267 167.728 70.6067 165.068 70.56C161.008 70.4667 157.368 69.7433 154.148 68.39C150.975 66.99 148.268 65.1 146.028 62.72C143.835 60.34 142.155 57.61 140.988 54.53C139.822 51.45 139.238 48.16 139.238 44.66C139.238 40.74 139.822 37.1467 140.988 33.88C142.202 30.6133 143.905 27.79 146.098 25.41C148.338 23.03 150.998 21.1867 154.078 19.88C157.158 18.5733 160.565 17.92 164.298 17.92C167.752 17.92 170.808 18.3867 173.468 19.32C176.128 20.2533 178.298 21.2567 179.978 22.33L175.988 31.92C174.822 31.0333 173.258 30.1233 171.298 29.19C169.385 28.21 167.168 27.72 164.648 27.72C162.688 27.72 160.798 28.14 158.978 28.98C157.205 29.7733 155.618 30.9167 154.218 32.41C152.865 33.9033 151.792 35.6533 150.998 37.66C150.205 39.62 149.808 41.7667 149.808 44.1C149.808 46.5733 150.158 48.8367 150.858 50.89C151.605 52.9433 152.655 54.7167 154.008 56.21C155.362 57.6567 156.972 58.7767 158.838 59.57C160.752 60.3633 162.898 60.76 165.278 60.76C168.032 60.76 170.388 60.3167 172.348 59.43C174.308 58.5433 175.802 57.61 176.828 56.63L181.028 65.73ZM200.297 50.96C200.297 52.5933 200.787 54.1567 201.767 55.65C202.747 57.1433 204.03 58.3567 205.617 59.29C207.25 60.2233 209.024 60.69 210.937 60.69C213.037 60.69 214.904 60.2233 216.537 59.29C218.17 58.3567 219.454 57.1433 220.387 55.65C221.367 54.1567 221.857 52.5933 221.857 50.96V18.48H231.867V51.17C231.867 54.95 230.934 58.31 229.067 61.25C227.2 64.1433 224.68 66.43 221.507 68.11C218.334 69.7433 214.81 70.56 210.937 70.56C207.11 70.56 203.61 69.7433 200.437 68.11C197.31 66.43 194.814 64.1433 192.947 61.25C191.08 58.31 190.147 54.95 190.147 51.17V18.48H200.297V50.96ZM244.107 18.48H254.257V70H244.107V18.48ZM264.054 18.48H298.774V28.28H286.244V70H276.094V28.28H264.054V18.48ZM331.334 70V18.48H346.734C351.914 18.48 356.324 19.25 359.964 20.79C363.604 22.33 366.52 24.3833 368.714 26.95C370.954 29.5167 372.587 32.3867 373.614 35.56C374.64 38.7333 375.154 41.93 375.154 45.15C375.154 48.9767 374.454 52.43 373.054 55.51C371.7 58.5433 369.834 61.1567 367.454 63.35C365.074 65.4967 362.32 67.1533 359.194 68.32C356.067 69.44 352.754 70 349.254 70H331.334ZM341.484 60.2H347.504C350.07 60.2 352.404 59.8733 354.504 59.22C356.604 58.52 358.4 57.5167 359.894 56.21C361.434 54.9033 362.6 53.27 363.394 51.31C364.234 49.3033 364.654 47.0167 364.654 44.45C364.654 41.09 364.094 38.36 362.974 36.26C361.9 34.1133 360.547 32.4567 358.914 31.29C357.327 30.1233 355.694 29.33 354.014 28.91C352.334 28.4433 350.91 28.21 349.744 28.21H341.484V60.2ZM385.338 18.48H420.478V28.28H395.488V39.27H417.608V49.07H395.488V60.2H421.458V70H385.338V18.48ZM462.492 18.48L477.542 55.58L471.662 54.39L485.312 18.48H497.352L473.832 72.38L450.312 18.48H462.492ZM493.414 70L516.654 16.45H517.214L540.454 70H528.694L513.854 32.34L521.204 27.3L503.424 70H493.414ZM509.304 51.38H524.774L528.344 59.92H506.154L509.304 51.38ZM547.964 18.48H558.114V60.2H582.334V70H547.964V18.48ZM592.808 18.48H602.958V60.2H627.178V70H592.808V18.48ZM637.652 18.48H672.792V28.28H647.802V39.27H669.922V49.07H647.802V60.2H673.772V70H637.652V18.48ZM684.273 70V16.38H684.343L712.973 56.98L708.633 56L737.193 16.38H737.333V70H727.183V39.27L727.813 44.52L710.383 69.3H710.243L692.323 44.52L694.073 39.69V70H684.273ZM744.84 70L768.08 16.45H768.64L791.88 70H780.12L765.28 32.34L772.63 27.3L754.85 70H744.84ZM760.73 51.38H776.2L779.77 59.92H757.58L760.73 51.38ZM815 18.48C818.22 18.48 821.09 18.9 823.61 19.74C826.13 20.5333 828.23 21.7 829.91 23.24C831.637 24.7333 832.944 26.5533 833.83 28.7C834.717 30.8 835.16 33.18 835.16 35.84C835.16 37.94 834.834 40.04 834.18 42.14C833.574 44.24 832.547 46.1533 831.1 47.88C829.7 49.6067 827.834 51.0067 825.5 52.08C823.167 53.1067 820.274 53.62 816.82 53.62H809.54V70H799.39V18.48H815ZM816.75 43.82C818.29 43.82 819.574 43.5633 820.6 43.05C821.627 42.5367 822.42 41.8833 822.98 41.09C823.587 40.2967 824.007 39.48 824.24 38.64C824.52 37.7533 824.66 36.9367 824.66 36.19C824.66 35.63 824.567 34.93 824.38 34.09C824.24 33.2033 823.914 32.3167 823.4 31.43C822.887 30.5433 822.094 29.7967 821.02 29.19C819.994 28.5833 818.594 28.28 816.82 28.28H809.54V43.82H816.75ZM826.27 50.12L839.01 70H827.18L814.16 50.4L826.27 50.12Z" fill="url(#paint0_linear_649_110)"/>
</g>
<defs>
<filter id="filter0_bd_649_110" x="-79.2285" y="-83.6191" width="1018.24" height="256" filterUnits="userSpaceOnUse" color-interpolation-filters="sRGB">
<feFlood flood-opacity="0" result="BackgroundImageFix"/>
<feGaussianBlur in="BackgroundImageFix" stdDeviation="50"/>
<feComposite in2="SourceAlpha" operator="in" result="effect1_backgroundBlur_649_110"/>
<feColorMatrix in="SourceAlpha" type="matrix" values="0 0 0 0 0 0 0 0 0 0 0 0 0 0 0 0 0 0 127 0" result="hardAlpha"/>
<feOffset dy="4"/>
<feGaussianBlur stdDeviation="10"/>
<feComposite in2="hardAlpha" operator="out"/>
<feColorMatrix type="matrix" values="0 0 0 0 0 0 0 0 0 0 0 0 0 0 0 0 0 0 1 0"/>
<feBlend mode="normal" in2="effect1_backgroundBlur_649_110" result="effect2_dropShadow_649_110"/>
<feBlend mode="normal" in="SourceGraphic" in2="effect2_dropShadow_649_110" result="shape"/>
</filter>
<linearGradient id="paint0_linear_649_110" x1="429" y1="87" x2="429" y2="17" gradientUnits="userSpaceOnUse">
<stop stop-color="#546E7A"/>
<stop offset="1" stop-color="#B0C4DE"/>
</linearGradient>
</defs>
</svg>
